<svg width="750" height="670" viewBox="0 0 750 670" fill="none" xmlns="http://www.w3.org/2000/svg">
<path d="M123.095 317.488C117.402 317.488 112.969 315.861 109.797 312.608C106.625 309.355 105.039 304.678 105.039 298.578V274.3H111.139V298.334C111.139 307.484 115.145 312.059 123.156 312.059C127.06 312.059 130.049 310.941 132.123 308.704C134.197 306.427 135.234 302.97 135.234 298.334V274.3H141.151V298.578C141.151 304.719 139.565 309.416 136.393 312.669C133.221 315.882 128.788 317.488 123.095 317.488ZM169.944 284.365C173.075 284.365 175.881 285.056 178.362 286.439C180.843 287.822 182.774 289.753 184.157 292.234C185.58 294.715 186.292 297.582 186.292 300.835C186.292 304.088 185.58 306.976 184.157 309.497C182.774 311.978 180.843 313.909 178.362 315.292C175.881 316.675 173.075 317.366 169.944 317.366C167.626 317.366 165.491 316.919 163.539 316.024C161.628 315.129 160.001 313.828 158.659 312.12V328.834H152.803V284.67H158.415V289.794C159.716 288.005 161.363 286.663 163.356 285.768C165.349 284.833 167.545 284.365 169.944 284.365ZM169.456 312.242C171.53 312.242 173.38 311.774 175.007 310.839C176.674 309.863 177.976 308.521 178.911 306.813C179.887 305.064 180.375 303.072 180.375 300.835C180.375 298.598 179.887 296.626 178.911 294.918C177.976 293.169 176.674 291.827 175.007 290.892C173.38 289.957 171.53 289.489 169.456 289.489C167.423 289.489 165.572 289.977 163.905 290.953C162.278 291.888 160.977 293.21 160.001 294.918C159.066 296.626 158.598 298.598 158.598 300.835C158.598 303.072 159.066 305.064 160.001 306.813C160.936 308.521 162.238 309.863 163.905 310.839C165.572 311.774 167.423 312.242 169.456 312.242ZM194.383 271.738H200.239V317H194.383V271.738ZM225.267 317.366C222.054 317.366 219.167 316.654 216.605 315.231C214.043 313.808 212.03 311.856 210.566 309.375C209.143 306.854 208.431 304.007 208.431 300.835C208.431 297.663 209.143 294.837 210.566 292.356C212.03 289.835 214.043 287.883 216.605 286.5C219.167 285.077 222.054 284.365 225.267 284.365C228.48 284.365 231.347 285.077 233.868 286.5C236.43 287.883 238.423 289.835 239.846 292.356C241.31 294.837 242.042 297.663 242.042 300.835C242.042 304.007 241.31 306.854 239.846 309.375C238.423 311.856 236.43 313.808 233.868 315.231C231.347 316.654 228.48 317.366 225.267 317.366ZM225.267 312.242C227.341 312.242 229.191 311.774 230.818 310.839C232.485 309.863 233.787 308.521 234.722 306.813C235.657 305.064 236.125 303.072 236.125 300.835C236.125 298.598 235.657 296.626 234.722 294.918C233.787 293.169 232.485 291.827 230.818 290.892C229.191 289.957 227.341 289.489 225.267 289.489C223.193 289.489 221.322 289.957 219.655 290.892C218.028 291.827 216.727 293.169 215.751 294.918C214.816 296.626 214.348 298.598 214.348 300.835C214.348 303.072 214.816 305.064 215.751 306.813C216.727 308.521 218.028 309.863 219.655 310.839C221.322 311.774 223.193 312.242 225.267 312.242ZM261.616 284.365C266.089 284.365 269.505 285.463 271.864 287.659C274.263 289.855 275.463 293.129 275.463 297.48V317H269.912V312.73C268.936 314.235 267.533 315.394 265.703 316.207C263.914 316.98 261.779 317.366 259.298 317.366C255.679 317.366 252.771 316.492 250.575 314.743C248.42 312.994 247.342 310.697 247.342 307.85C247.342 305.003 248.379 302.726 250.453 301.018C252.527 299.269 255.821 298.395 260.335 298.395H269.607V297.236C269.607 294.715 268.875 292.783 267.411 291.441C265.947 290.099 263.792 289.428 260.945 289.428C259.034 289.428 257.163 289.753 255.333 290.404C253.503 291.014 251.958 291.848 250.697 292.905L248.257 288.513C249.924 287.171 251.917 286.154 254.235 285.463C256.553 284.731 259.013 284.365 261.616 284.365ZM260.274 312.852C262.511 312.852 264.442 312.364 266.069 311.388C267.696 310.371 268.875 308.948 269.607 307.118V302.604H260.579C255.618 302.604 253.137 304.271 253.137 307.606C253.137 309.233 253.767 310.514 255.028 311.449C256.289 312.384 258.037 312.852 260.274 312.852ZM316.979 271.738V317H311.367V311.876C310.065 313.665 308.418 315.028 306.426 315.963C304.433 316.898 302.237 317.366 299.838 317.366C296.706 317.366 293.9 316.675 291.42 315.292C288.939 313.909 286.987 311.978 285.564 309.497C284.181 306.976 283.49 304.088 283.49 300.835C283.49 297.582 284.181 294.715 285.564 292.234C286.987 289.753 288.939 287.822 291.42 286.439C293.9 285.056 296.706 284.365 299.838 284.365C302.156 284.365 304.291 284.812 306.243 285.707C308.195 286.561 309.821 287.842 311.123 289.55V271.738H316.979ZM300.326 312.242C302.359 312.242 304.209 311.774 305.877 310.839C307.544 309.863 308.845 308.521 309.781 306.813C310.716 305.064 311.184 303.072 311.184 300.835C311.184 298.598 310.716 296.626 309.781 294.918C308.845 293.169 307.544 291.827 305.877 290.892C304.209 289.957 302.359 289.489 300.326 289.489C298.252 289.489 296.381 289.957 294.714 290.892C293.087 291.827 291.786 293.169 290.81 294.918C289.874 296.626 289.407 298.598 289.407 300.835C289.407 303.072 289.874 305.064 290.81 306.813C291.786 308.521 293.087 309.863 294.714 310.839C296.381 311.774 298.252 312.242 300.326 312.242ZM361.582 284.365C364.713 284.365 367.519 285.056 370 286.439C372.48 287.822 374.412 289.753 375.795 292.234C377.218 294.715 377.93 297.582 377.93 300.835C377.93 304.088 377.218 306.976 375.795 309.497C374.412 311.978 372.48 313.909 370 315.292C367.519 316.675 364.713 317.366 361.582 317.366C359.264 317.366 357.129 316.919 355.177 316.024C353.265 315.129 351.639 313.828 350.297 312.12V328.834H344.441V284.67H350.053V289.794C351.354 288.005 353.001 286.663 354.994 285.768C356.986 284.833 359.182 284.365 361.582 284.365ZM361.094 312.242C363.168 312.242 365.018 311.774 366.645 310.839C368.312 309.863 369.613 308.521 370.549 306.813C371.525 305.064 372.013 303.072 372.013 300.835C372.013 298.598 371.525 296.626 370.549 294.918C369.613 293.169 368.312 291.827 366.645 290.892C365.018 289.957 363.168 289.489 361.094 289.489C359.06 289.489 357.21 289.977 355.543 290.953C353.916 291.888 352.615 293.21 351.639 294.918C350.703 296.626 350.236 298.598 350.236 300.835C350.236 303.072 350.703 305.064 351.639 306.813C352.574 308.521 353.875 309.863 355.543 310.839C357.21 311.774 359.06 312.242 361.094 312.242ZM391.633 290.099C392.649 288.228 394.154 286.805 396.147 285.829C398.139 284.853 400.559 284.365 403.406 284.365V290.038C403.08 289.997 402.633 289.977 402.064 289.977C398.892 289.977 396.391 290.933 394.561 292.844C392.771 294.715 391.877 297.399 391.877 300.896V317H386.021V284.67H391.633V290.099ZM424.172 317.366C420.96 317.366 418.072 316.654 415.51 315.231C412.948 313.808 410.935 311.856 409.471 309.375C408.048 306.854 407.336 304.007 407.336 300.835C407.336 297.663 408.048 294.837 409.471 292.356C410.935 289.835 412.948 287.883 415.51 286.5C418.072 285.077 420.96 284.365 424.172 284.365C427.385 284.365 430.252 285.077 432.773 286.5C435.335 287.883 437.328 289.835 438.751 292.356C440.215 294.837 440.947 297.663 440.947 300.835C440.947 304.007 440.215 306.854 438.751 309.375C437.328 311.856 435.335 313.808 432.773 315.231C430.252 316.654 427.385 317.366 424.172 317.366ZM424.172 312.242C426.246 312.242 428.097 311.774 429.723 310.839C431.391 309.863 432.692 308.521 433.627 306.813C434.563 305.064 435.03 303.072 435.03 300.835C435.03 298.598 434.563 296.626 433.627 294.918C432.692 293.169 431.391 291.827 429.723 290.892C428.097 289.957 426.246 289.489 424.172 289.489C422.098 289.489 420.228 289.957 418.56 290.892C416.934 291.827 415.632 293.169 414.656 294.918C413.721 296.626 413.253 298.598 413.253 300.835C413.253 303.072 413.721 305.064 414.656 306.813C415.632 308.521 416.934 309.863 418.56 310.839C420.228 311.774 422.098 312.242 424.172 312.242ZM444.898 329.2C443.475 329.2 442.153 329.037 440.933 328.712C439.713 328.387 438.696 327.899 437.883 327.248L439.774 322.734C440.994 323.751 442.58 324.259 444.532 324.259C446.077 324.259 447.257 323.771 448.07 322.795C448.924 321.86 449.351 320.457 449.351 318.586V284.67H455.207V318.464C455.207 321.799 454.312 324.422 452.523 326.333C450.734 328.244 448.192 329.2 444.898 329.2ZM452.279 278.448C451.14 278.448 450.185 278.082 449.412 277.35C448.68 276.618 448.314 275.723 448.314 274.666C448.314 273.609 448.68 272.714 449.412 271.982C450.185 271.209 451.14 270.823 452.279 270.823C453.418 270.823 454.353 271.189 455.085 271.921C455.858 272.612 456.244 273.487 456.244 274.544C456.244 275.642 455.858 276.577 455.085 277.35C454.353 278.082 453.418 278.448 452.279 278.448ZM495.6 301.018C495.6 301.465 495.559 302.055 495.478 302.787H469.248C469.614 305.634 470.854 307.931 472.969 309.68C475.124 311.388 477.788 312.242 480.96 312.242C484.823 312.242 487.934 310.941 490.293 308.338L493.526 312.12C492.062 313.828 490.232 315.129 488.036 316.024C485.881 316.919 483.461 317.366 480.777 317.366C477.361 317.366 474.331 316.675 471.688 315.292C469.045 313.869 466.991 311.896 465.527 309.375C464.104 306.854 463.392 304.007 463.392 300.835C463.392 297.704 464.083 294.877 465.466 292.356C466.889 289.835 468.821 287.883 471.261 286.5C473.742 285.077 476.527 284.365 479.618 284.365C482.709 284.365 485.454 285.077 487.853 286.5C490.293 287.883 492.184 289.835 493.526 292.356C494.909 294.877 495.6 297.765 495.6 301.018ZM479.618 289.306C476.812 289.306 474.453 290.16 472.542 291.868C470.671 293.576 469.573 295.813 469.248 298.578H489.988C489.663 295.853 488.544 293.637 486.633 291.929C484.762 290.18 482.424 289.306 479.618 289.306ZM517.823 317.366C514.529 317.366 511.58 316.654 508.978 315.231C506.416 313.808 504.403 311.856 502.939 309.375C501.475 306.854 500.743 304.007 500.743 300.835C500.743 297.663 501.475 294.837 502.939 292.356C504.403 289.835 506.416 287.883 508.978 286.5C511.58 285.077 514.529 284.365 517.823 284.365C520.751 284.365 523.353 284.955 525.631 286.134C527.949 287.313 529.738 289.021 530.999 291.258L526.546 294.125C525.529 292.58 524.268 291.421 522.764 290.648C521.259 289.875 519.592 289.489 517.762 289.489C515.647 289.489 513.736 289.957 512.028 290.892C510.36 291.827 509.039 293.169 508.063 294.918C507.127 296.626 506.66 298.598 506.66 300.835C506.66 303.112 507.127 305.125 508.063 306.874C509.039 308.582 510.36 309.904 512.028 310.839C513.736 311.774 515.647 312.242 517.762 312.242C519.592 312.242 521.259 311.856 522.764 311.083C524.268 310.31 525.529 309.151 526.546 307.606L530.999 310.412C529.738 312.649 527.949 314.377 525.631 315.597C523.353 316.776 520.751 317.366 517.823 317.366ZM557.175 315.109C556.321 315.841 555.264 316.41 554.003 316.817C552.743 317.183 551.441 317.366 550.099 317.366C546.846 317.366 544.325 316.492 542.535 314.743C540.746 312.994 539.851 310.493 539.851 307.24V289.489H534.361V284.67H539.851V277.594H545.707V284.67H554.979V289.489H545.707V306.996C545.707 308.745 546.134 310.087 546.988 311.022C547.883 311.957 549.144 312.425 550.77 312.425C552.56 312.425 554.085 311.917 555.345 310.9L557.175 315.109ZM573.527 317.366C570.884 317.366 568.342 317.02 565.902 316.329C563.462 315.597 561.551 314.682 560.168 313.584L562.608 308.948C564.031 309.965 565.76 310.778 567.793 311.388C569.826 311.998 571.88 312.303 573.954 312.303C579.078 312.303 581.64 310.839 581.64 307.911C581.64 306.935 581.294 306.162 580.603 305.593C579.912 305.024 579.037 304.617 577.98 304.373C576.963 304.088 575.499 303.783 573.588 303.458C570.985 303.051 568.85 302.584 567.183 302.055C565.556 301.526 564.153 300.632 562.974 299.371C561.795 298.11 561.205 296.341 561.205 294.064C561.205 291.136 562.425 288.798 564.865 287.049C567.305 285.26 570.579 284.365 574.686 284.365C576.841 284.365 578.997 284.629 581.152 285.158C583.307 285.687 585.076 286.398 586.459 287.293L583.958 291.929C581.315 290.221 578.204 289.367 574.625 289.367C572.144 289.367 570.253 289.774 568.952 290.587C567.651 291.4 567 292.478 567 293.82C567 294.877 567.366 295.711 568.098 296.321C568.83 296.931 569.725 297.378 570.782 297.663C571.88 297.948 573.405 298.273 575.357 298.639C577.96 299.086 580.054 299.574 581.64 300.103C583.267 300.591 584.649 301.445 585.788 302.665C586.927 303.885 587.496 305.593 587.496 307.789C587.496 310.717 586.235 313.055 583.714 314.804C581.233 316.512 577.838 317.366 573.527 317.366ZM121.814 358.365C125.921 358.365 129.175 359.565 131.574 361.964C134.014 364.323 135.234 367.8 135.234 372.395V391H129.378V373.066C129.378 369.935 128.626 367.576 127.121 365.99C125.616 364.404 123.461 363.611 120.655 363.611C117.483 363.611 114.982 364.546 113.152 366.417C111.322 368.247 110.407 370.89 110.407 374.347V391H104.551V345.738H110.407V363.245C111.627 361.7 113.213 360.5 115.165 359.646C117.158 358.792 119.374 358.365 121.814 358.365ZM175.469 375.018C175.469 375.465 175.429 376.055 175.347 376.787H149.117C149.483 379.634 150.724 381.931 152.838 383.68C154.994 385.388 157.657 386.242 160.829 386.242C164.693 386.242 167.804 384.941 170.162 382.338L173.395 386.12C171.931 387.828 170.101 389.129 167.905 390.024C165.75 390.919 163.33 391.366 160.646 391.366C157.23 391.366 154.201 390.675 151.557 389.292C148.914 387.869 146.86 385.896 145.396 383.375C143.973 380.854 143.261 378.007 143.261 374.835C143.261 371.704 143.953 368.877 145.335 366.356C146.759 363.835 148.69 361.883 151.13 360.5C153.611 359.077 156.397 358.365 159.487 358.365C162.578 358.365 165.323 359.077 167.722 360.5C170.162 361.883 172.053 363.835 173.395 366.356C174.778 368.877 175.469 371.765 175.469 375.018ZM159.487 363.306C156.681 363.306 154.323 364.16 152.411 365.868C150.541 367.576 149.443 369.813 149.117 372.578H169.857C169.532 369.853 168.414 367.637 166.502 365.929C164.632 364.18 162.293 363.306 159.487 363.306ZM189.213 364.099C190.229 362.228 191.734 360.805 193.727 359.829C195.719 358.853 198.139 358.365 200.986 358.365V364.038C200.66 363.997 200.213 363.977 199.644 363.977C196.472 363.977 193.971 364.933 192.141 366.844C190.351 368.715 189.457 371.399 189.457 374.896V391H183.601V358.67H189.213V364.099ZM237.124 375.018C237.124 375.465 237.084 376.055 237.002 376.787H210.772C211.138 379.634 212.379 381.931 214.493 383.68C216.649 385.388 219.312 386.242 222.484 386.242C226.348 386.242 229.459 384.941 231.817 382.338L235.05 386.12C233.586 387.828 231.756 389.129 229.56 390.024C227.405 390.919 224.985 391.366 222.301 391.366C218.885 391.366 215.856 390.675 213.212 389.292C210.569 387.869 208.515 385.896 207.051 383.375C205.628 380.854 204.916 378.007 204.916 374.835C204.916 371.704 205.608 368.877 206.99 366.356C208.414 363.835 210.345 361.883 212.785 360.5C215.266 359.077 218.052 358.365 221.142 358.365C224.233 358.365 226.978 359.077 229.377 360.5C231.817 361.883 233.708 363.835 235.05 366.356C236.433 368.877 237.124 371.765 237.124 375.018ZM221.142 363.306C218.336 363.306 215.978 364.16 214.066 365.868C212.196 367.576 211.098 369.813 210.772 372.578H231.512C231.187 369.853 230.069 367.637 228.157 365.929C226.287 364.18 223.948 363.306 221.142 363.306ZM273.472 350.191C269.975 350.191 268.226 352.082 268.226 355.864V358.67H277.62V363.489H268.348V391H262.492V363.489H257.002V358.67H262.492V355.803C262.492 352.59 263.427 350.049 265.298 348.178C267.169 346.307 269.792 345.372 273.167 345.372C274.468 345.372 275.688 345.535 276.827 345.86C277.966 346.185 278.942 346.653 279.755 347.263L277.986 351.716C276.644 350.699 275.139 350.191 273.472 350.191ZM296.513 391.366C293.301 391.366 290.413 390.654 287.851 389.231C285.289 387.808 283.276 385.856 281.812 383.375C280.389 380.854 279.677 378.007 279.677 374.835C279.677 371.663 280.389 368.837 281.812 366.356C283.276 363.835 285.289 361.883 287.851 360.5C290.413 359.077 293.301 358.365 296.513 358.365C299.726 358.365 302.593 359.077 305.114 360.5C307.676 361.883 309.669 363.835 311.092 366.356C312.556 368.837 313.288 371.663 313.288 374.835C313.288 378.007 312.556 380.854 311.092 383.375C309.669 385.856 307.676 387.808 305.114 389.231C302.593 390.654 299.726 391.366 296.513 391.366ZM296.513 386.242C298.587 386.242 300.438 385.774 302.064 384.839C303.732 383.863 305.033 382.521 305.968 380.813C306.904 379.064 307.371 377.072 307.371 374.835C307.371 372.598 306.904 370.626 305.968 368.918C305.033 367.169 303.732 365.827 302.064 364.892C300.438 363.957 298.587 363.489 296.513 363.489C294.439 363.489 292.569 363.957 290.901 364.892C289.275 365.827 287.973 367.169 286.997 368.918C286.062 370.626 285.594 372.598 285.594 374.835C285.594 377.072 286.062 379.064 286.997 380.813C287.973 382.521 289.275 383.863 290.901 384.839C292.569 385.774 294.439 386.242 296.513 386.242ZM326.999 364.099C328.016 362.228 329.52 360.805 331.513 359.829C333.506 358.853 335.925 358.365 338.772 358.365V364.038C338.447 363.997 337.999 363.977 337.43 363.977C334.258 363.977 331.757 364.933 329.927 366.844C328.138 368.715 327.243 371.399 327.243 374.896V391H321.387V358.67H326.999V364.099ZM380.966 389.109C380.112 389.841 379.055 390.41 377.794 390.817C376.534 391.183 375.232 391.366 373.89 391.366C370.637 391.366 368.116 390.492 366.326 388.743C364.537 386.994 363.642 384.493 363.642 381.24V363.489H358.152V358.67H363.642V351.594H369.498V358.67H378.77V363.489H369.498V380.996C369.498 382.745 369.925 384.087 370.779 385.022C371.674 385.957 372.935 386.425 374.561 386.425C376.351 386.425 377.876 385.917 379.136 384.9L380.966 389.109ZM405.309 358.365C409.416 358.365 412.67 359.565 415.069 361.964C417.509 364.323 418.729 367.8 418.729 372.395V391H412.873V373.066C412.873 369.935 412.121 367.576 410.616 365.99C409.111 364.404 406.956 363.611 404.15 363.611C400.978 363.611 398.477 364.546 396.647 366.417C394.817 368.247 393.902 370.89 393.902 374.347V391H388.046V345.738H393.902V363.245C395.122 361.7 396.708 360.5 398.66 359.646C400.653 358.792 402.869 358.365 405.309 358.365ZM458.964 375.018C458.964 375.465 458.924 376.055 458.842 376.787H432.612C432.978 379.634 434.219 381.931 436.333 383.68C438.489 385.388 441.152 386.242 444.324 386.242C448.188 386.242 451.299 384.941 453.657 382.338L456.89 386.12C455.426 387.828 453.596 389.129 451.4 390.024C449.245 390.919 446.825 391.366 444.141 391.366C440.725 391.366 437.696 390.675 435.052 389.292C432.409 387.869 430.355 385.896 428.891 383.375C427.468 380.854 426.756 378.007 426.756 374.835C426.756 371.704 427.448 368.877 428.83 366.356C430.254 363.835 432.185 361.883 434.625 360.5C437.106 359.077 439.892 358.365 442.982 358.365C446.073 358.365 448.818 359.077 451.217 360.5C453.657 361.883 455.548 363.835 456.89 366.356C458.273 368.877 458.964 371.765 458.964 375.018ZM442.982 363.306C440.176 363.306 437.818 364.16 435.906 365.868C434.036 367.576 432.938 369.813 432.612 372.578H453.352C453.027 369.853 451.909 367.637 449.997 365.929C448.127 364.18 445.788 363.306 442.982 363.306ZM495.312 350.191C491.814 350.191 490.066 352.082 490.066 355.864V358.67H499.46V363.489H490.188V391H484.332V363.489H478.842V358.67H484.332V355.803C484.332 352.59 485.267 350.049 487.138 348.178C489.008 346.307 491.631 345.372 495.007 345.372C496.308 345.372 497.528 345.535 498.667 345.86C499.805 346.185 500.781 346.653 501.595 347.263L499.826 351.716C498.484 350.699 496.979 350.191 495.312 350.191ZM535.117 358.67V391H529.566V386.12C528.386 387.787 526.821 389.089 524.869 390.024C522.957 390.919 520.863 391.366 518.586 391.366C514.275 391.366 510.879 390.187 508.399 387.828C505.918 385.429 504.678 381.911 504.678 377.275V358.67H510.534V376.604C510.534 379.735 511.286 382.114 512.791 383.741C514.295 385.327 516.451 386.12 519.257 386.12C522.347 386.12 524.787 385.185 526.577 383.314C528.366 381.443 529.261 378.8 529.261 375.384V358.67H535.117ZM564.443 389.109C563.589 389.841 562.532 390.41 561.271 390.817C560.01 391.183 558.709 391.366 557.367 391.366C554.114 391.366 551.592 390.492 549.803 388.743C548.014 386.994 547.119 384.493 547.119 381.24V363.489H541.629V358.67H547.119V351.594H552.975V358.67H562.247V363.489H552.975V380.996C552.975 382.745 553.402 384.087 554.256 385.022C555.151 385.957 556.411 386.425 558.038 386.425C559.827 386.425 561.352 385.917 562.613 384.9L564.443 389.109ZM601.657 358.67V391H596.106V386.12C594.926 387.787 593.361 389.089 591.409 390.024C589.497 390.919 587.403 391.366 585.126 391.366C580.815 391.366 577.419 390.187 574.939 387.828C572.458 385.429 571.218 381.911 571.218 377.275V358.67H577.074V376.604C577.074 379.735 577.826 382.114 579.331 383.741C580.835 385.327 582.991 386.12 585.797 386.12C588.887 386.12 591.327 385.185 593.117 383.314C594.906 381.443 595.801 378.8 595.801 375.384V358.67H601.657ZM618.417 364.099C619.434 362.228 620.938 360.805 622.931 359.829C624.924 358.853 627.343 358.365 630.19 358.365V364.038C629.865 363.997 629.417 363.977 628.848 363.977C625.676 363.977 623.175 364.933 621.345 366.844C619.556 368.715 618.661 371.399 618.661 374.896V391H612.805V358.67H618.417V364.099ZM666.329 375.018C666.329 375.465 666.288 376.055 666.207 376.787H639.977C640.343 379.634 641.583 381.931 643.698 383.68C645.853 385.388 648.517 386.242 651.689 386.242C655.552 386.242 658.663 384.941 661.022 382.338L664.255 386.12C662.791 387.828 660.961 389.129 658.765 390.024C656.609 390.919 654.19 391.366 651.506 391.366C648.09 391.366 645.06 390.675 642.417 389.292C639.773 387.869 637.72 385.896 636.256 383.375C634.832 380.854 634.121 378.007 634.121 374.835C634.121 371.704 634.812 368.877 636.195 366.356C637.618 363.835 639.55 361.883 641.99 360.5C644.47 359.077 647.256 358.365 650.347 358.365C653.437 358.365 656.182 359.077 658.582 360.5C661.022 361.883 662.913 363.835 664.255 366.356C665.637 368.877 666.329 371.765 666.329 375.018ZM650.347 363.306C647.541 363.306 645.182 364.16 643.271 365.868C641.4 367.576 640.302 369.813 639.977 372.578H660.717C660.391 369.853 659.273 367.637 657.362 365.929C655.491 364.18 653.153 363.306 650.347 363.306ZM675.863 391.366C674.725 391.366 673.749 390.98 672.935 390.207C672.122 389.394 671.715 388.377 671.715 387.157C671.715 385.978 672.122 385.002 672.935 384.229C673.749 383.416 674.725 383.009 675.863 383.009C677.002 383.009 677.958 383.395 678.73 384.168C679.503 384.941 679.889 385.937 679.889 387.157C679.889 388.377 679.483 389.394 678.669 390.207C677.897 390.98 676.961 391.366 675.863 391.366Z" fill="black"/>
<g style="mix-blend-mode:darken">
<path d="M0 335C0 149.985 149.985 0 335 0H415C600.015 0 750 149.985 750 335C750 520.015 600.015 670 415 670H335C149.985 670 0 520.015 0 335Z" fill="#D6DA00" fill-opacity="0.48"/>
</g>
</svg>
